<svg xmlns="http://www.w3.org/2000/svg" viewBox="0 0 512 512">
  <defs>
    <style>@import url('https://fonts.googleapis.com/css2?family=Bebas+Neue&display=swap');</style>
  </defs>
  <!-- background -->
  <rect width="512" height="512" rx="80" fill="#080808"/>
  <!-- border -->
  <rect x="8" y="8" width="496" height="496" rx="72" fill="none" stroke="#c8a96e" stroke-width="10"/>
  <!-- perforations top -->
  <rect x="30" y="22" width="52" height="38" rx="7" fill="#c8a96e"/>
  <rect x="110" y="22" width="52" height="38" rx="7" fill="#c8a96e"/>
  <rect x="190" y="22" width="52" height="38" rx="7" fill="#c8a96e"/>
  <rect x="270" y="22" width="52" height="38" rx="7" fill="#c8a96e"/>
  <rect x="350" y="22" width="52" height="38" rx="7" fill="#c8a96e"/>
  <rect x="430" y="22" width="52" height="38" rx="7" fill="#c8a96e"/>
  <!-- perforations bottom -->
  <rect x="30" y="452" width="52" height="38" rx="7" fill="#c8a96e"/>
  <rect x="110" y="452" width="52" height="38" rx="7" fill="#c8a96e"/>
  <rect x="190" y="452" width="52" height="38" rx="7" fill="#c8a96e"/>
  <rect x="270" y="452" width="52" height="38" rx="7" fill="#c8a96e"/>
  <rect x="350" y="452" width="52" height="38" rx="7" fill="#c8a96e"/>
  <rect x="430" y="452" width="52" height="38" rx="7" fill="#c8a96e"/>
  <!-- inner area -->
  <rect x="22" y="72" width="468" height="368" rx="12" fill="#111111"/>
  <!-- C letter -->
  <text x="256" y="380" font-family="'Bebas Neue', sans-serif" font-size="320" fill="#c8a96e" text-anchor="middle" dominant-baseline="auto" letter-spacing="4">C</text>
</svg>
